<svg xmlns="http://www.w3.org/2000/svg" width="146" height="46.788"><path d="M54.714 0h-.117a13.309 13.309 0 00-11.112 6.083A13.309 13.309 0 0032.373 0h-.118a13.225 13.225 0 00-13.1 13.218c0 4.328 1.895 10.469 5.591 15.522 7.042 9.627 18.739 18.049 18.739 18.049s11.7-8.422 18.739-18.049c3.7-5.053 5.591-11.194 5.591-15.522A13.225 13.225 0 0054.714 0zm4.866 26.81c-4.983 6.819-12.574 13.112-16.1 15.861-3.521-2.749-11.112-9.054-16.1-15.873-3.427-4.679-4.96-10.188-4.96-13.58a9.924 9.924 0 019.849-9.931h.105a9.807 9.807 0 014.808 1.263 10.221 10.221 0 013.556 3.334 3.286 3.286 0 005.5 0 10.323 10.323 0 013.556-3.334 9.807 9.807 0 014.808-1.263h.105a9.924 9.924 0 019.849 9.931A25.554 25.554 0 0159.58 26.81z" opacity=".05"/><text data-name="we love our clients" transform="translate(0 25.788)" fill="#464646" font-size="18" font-family="PTSans-Regular, PT Sans"><tspan x="0" y="0">we love our clients</tspan></text></svg>